<svg xmlns="http://www.w3.org/2000/svg" viewBox="0 0 100 100">
  <!-- Diglett -->
  <!-- Ground/dirt -->
  <ellipse cx="50" cy="85" rx="40" ry="12" fill="#8B5A2B"/>
  <ellipse cx="50" cy="82" rx="35" ry="8" fill="#6B4423"/>
  
  <!-- Dirt chunks -->
  <ellipse cx="20" cy="80" rx="8" ry="5" fill="#8B5A2B"/>
  <ellipse cx="80" cy="80" rx="8" ry="5" fill="#8B5A2B"/>
  <ellipse cx="35" cy="78" rx="5" ry="3" fill="#A0693D"/>
  <ellipse cx="65" cy="78" rx="5" ry="3" fill="#A0693D"/>
  
  <!-- Body (poking out) -->
  <ellipse cx="50" cy="55" rx="18" ry="25" fill="#C4996C"/>
  
  <!-- Nose (pink) -->
  <ellipse cx="50" cy="50" rx="6" ry="4" fill="#FFB6C1"/>
  
  <!-- Eyes -->
  <ellipse cx="42" cy="40" rx="5" ry="6" fill="#2C2C2C"/>
  <ellipse cx="58" cy="40" rx="5" ry="6" fill="#2C2C2C"/>
  <circle cx="43" cy="38" r="2" fill="#FFFFFF"/>
  <circle cx="59" cy="38" r="2" fill="#FFFFFF"/>
  
  <!-- Mouth -->
  <path d="M45 58 Q50 62 55 58" stroke="#2C2C2C" stroke-width="1.5" fill="none"/>
  
  <!-- Three hairs -->
  <path d="M50 20 L48 30 L50 28 L52 30 L50 20" fill="#C4996C"/>
  <path d="M43 22 L42 32" stroke="#C4996C" stroke-width="2"/>
  <path d="M57 22 L58 32" stroke="#C4996C" stroke-width="2"/>
</svg>
