<svg xmlns="http://www.w3.org/2000/svg" viewBox="0 0 100 100">
  <!-- Geodude -->
  <!-- Main rocky body -->
  <ellipse cx="50" cy="50" rx="32" ry="28" fill="#8B7355"/>
  
  <!-- Rocky texture -->
  <ellipse cx="35" cy="40" rx="8" ry="6" fill="#6B5344"/>
  <ellipse cx="60" cy="55" rx="10" ry="7" fill="#6B5344"/>
  <ellipse cx="45" cy="62" rx="7" ry="5" fill="#6B5344"/>
  <ellipse cx="65" cy="38" rx="6" ry="5" fill="#A08060"/>
  <ellipse cx="38" cy="55" rx="5" ry="4" fill="#A08060"/>
  
  <!-- Eyebrows (angry) -->
  <path d="M30 35 L42 40" stroke="#4A3728" stroke-width="4" stroke-linecap="round"/>
  <path d="M70 35 L58 40" stroke="#4A3728" stroke-width="4" stroke-linecap="round"/>
  
  <!-- Eyes -->
  <ellipse cx="40" cy="45" rx="6" ry="7" fill="#FFFFFF"/>
  <ellipse cx="60" cy="45" rx="6" ry="7" fill="#FFFFFF"/>
  <circle cx="41" cy="46" r="3" fill="#2C2C2C"/>
  <circle cx="61" cy="46" r="3" fill="#2C2C2C"/>
  <circle cx="42" cy="44" r="1.5" fill="#FFFFFF"/>
  <circle cx="62" cy="44" r="1.5" fill="#FFFFFF"/>
  
  <!-- Mouth -->
  <path d="M42 58 Q50 65 58 58" stroke="#2C2C2C" stroke-width="2" fill="none"/>
  
  <!-- Arms (rocky) -->
  <ellipse cx="12" cy="50" rx="12" ry="10" fill="#8B7355"/>
  <ellipse cx="88" cy="50" rx="12" ry="10" fill="#8B7355"/>
  <ellipse cx="8" cy="48" rx="6" ry="5" fill="#6B5344"/>
  <ellipse cx="92" cy="52" rx="6" ry="5" fill="#6B5344"/>
  
  <!-- Fingers -->
  <circle cx="2" cy="45" r="4" fill="#8B7355"/>
  <circle cx="4" cy="52" r="4" fill="#8B7355"/>
  <circle cx="6" cy="58" r="4" fill="#8B7355"/>
  <circle cx="98" cy="45" r="4" fill="#8B7355"/>
  <circle cx="96" cy="52" r="4" fill="#8B7355"/>
  <circle cx="94" cy="58" r="4" fill="#8B7355"/>
</svg>
