<svg xmlns="http://www.w3.org/2000/svg" viewBox="0 0 100 100">
  <!-- Meowth -->
  <!-- Body -->
  <ellipse cx="50" cy="65" rx="22" ry="20" fill="#F5E6C8"/>
  
  <!-- Head -->
  <ellipse cx="50" cy="38" rx="22" ry="20" fill="#F5E6C8"/>
  
  <!-- Ears -->
  <path d="M28 30 L18 10 L35 28" fill="#F5E6C8"/>
  <path d="M22 15 L30 25" stroke="#8B4513" stroke-width="3"/>
  <path d="M72 30 L82 10 L65 28" fill="#F5E6C8"/>
  <path d="M78 15 L70 25" stroke="#8B4513" stroke-width="3"/>
  
  <!-- Coin on forehead -->
  <circle cx="50" cy="25" r="8" fill="#FFD700"/>
  <circle cx="50" cy="25" r="6" fill="#FFC107"/>
  <text x="47" y="28" font-family="Arial" font-size="8" fill="#8B4513">$</text>
  
  <!-- Eyes -->
  <ellipse cx="40" cy="38" rx="7" ry="8" fill="#FFFFFF"/>
  <ellipse cx="60" cy="38" rx="7" ry="8" fill="#FFFFFF"/>
  <ellipse cx="41" cy="39" rx="4" ry="5" fill="#2C2C2C"/>
  <ellipse cx="61" cy="39" rx="4" ry="5" fill="#2C2C2C"/>
  <ellipse cx="41" cy="39" rx="2" ry="4" fill="#1A237E"/>
  <ellipse cx="61" cy="39" rx="2" ry="4" fill="#1A237E"/>
  <circle cx="42" cy="37" r="2" fill="#FFFFFF"/>
  <circle cx="62" cy="37" r="2" fill="#FFFFFF"/>
  
  <!-- Whiskers -->
  <path d="M25 42 L5 38" stroke="#2C2C2C" stroke-width="1"/>
  <path d="M25 45 L5 45" stroke="#2C2C2C" stroke-width="1"/>
  <path d="M25 48 L5 52" stroke="#2C2C2C" stroke-width="1"/>
  <path d="M75 42 L95 38" stroke="#2C2C2C" stroke-width="1"/>
  <path d="M75 45 L95 45" stroke="#2C2C2C" stroke-width="1"/>
  <path d="M75 48 L95 52" stroke="#2C2C2C" stroke-width="1"/>
  
  <!-- Mouth -->
  <ellipse cx="50" cy="50" rx="5" ry="3" fill="#D4A574"/>
  <path d="M45 52 Q50 58 55 52" stroke="#2C2C2C" stroke-width="1.5" fill="none"/>
  
  <!-- Arms -->
  <ellipse cx="30" cy="60" rx="6" ry="10" fill="#F5E6C8"/>
  <ellipse cx="70" cy="60" rx="6" ry="10" fill="#F5E6C8"/>
  
  <!-- Feet -->
  <ellipse cx="38" cy="85" rx="10" ry="5" fill="#F5E6C8"/>
  <ellipse cx="62" cy="85" rx="10" ry="5" fill="#F5E6C8"/>
  
  <!-- Tail (curly) -->
  <path d="M75 70 Q85 65 88 70 Q92 78 85 82 Q78 85 80 78 Q82 72 78 70" fill="#8B4513" stroke="#8B4513" stroke-width="3"/>
</svg>
