<svg xmlns="http://www.w3.org/2000/svg" viewBox="0 0 100 100">
  <!-- Squirtle -->
  <!-- Shell -->
  <ellipse cx="50" cy="58" rx="25" ry="22" fill="#8B5A2B"/>
  <ellipse cx="50" cy="58" rx="22" ry="19" fill="#C4A35A"/>
  
  <!-- Shell pattern -->
  <path d="M50 40 L50 76" stroke="#8B5A2B" stroke-width="2"/>
  <path d="M30 55 L70 55" stroke="#8B5A2B" stroke-width="2"/>
  <path d="M33 45 L67 70" stroke="#8B5A2B" stroke-width="2"/>
  <path d="M33 70 L67 45" stroke="#8B5A2B" stroke-width="2"/>
  
  <!-- Tail -->
  <path d="M75 65 Q85 60 88 65 Q92 72 85 75 Q78 78 75 70" fill="#7CC4E4"/>
  
  <!-- Body (belly) -->
  <ellipse cx="50" cy="62" rx="18" ry="16" fill="#E8D9A0"/>
  
  <!-- Head -->
  <ellipse cx="50" cy="32" rx="18" ry="16" fill="#7CC4E4"/>
  
  <!-- Eyes -->
  <ellipse cx="42" cy="30" rx="5" ry="6" fill="#FFFFFF"/>
  <ellipse cx="58" cy="30" rx="5" ry="6" fill="#FFFFFF"/>
  <ellipse cx="43" cy="31" rx="3" ry="4" fill="#8B4513"/>
  <ellipse cx="59" cy="31" rx="3" ry="4" fill="#8B4513"/>
  <circle cx="44" cy="29" r="1.5" fill="#FFFFFF"/>
  <circle cx="60" cy="29" r="1.5" fill="#FFFFFF"/>
  
  <!-- Mouth/Beak -->
  <path d="M44 40 Q50 45 56 40 Q50 42 44 40" fill="#E8D9A0"/>
  <path d="M44 40 Q50 45 56 40" stroke="#2C2C2C" stroke-width="1" fill="none"/>
  
  <!-- Arms -->
  <ellipse cx="28" cy="55" rx="7" ry="9" fill="#7CC4E4"/>
  <ellipse cx="72" cy="55" rx="7" ry="9" fill="#7CC4E4"/>
  
  <!-- Legs -->
  <ellipse cx="38" cy="82" rx="9" ry="6" fill="#7CC4E4"/>
  <ellipse cx="62" cy="82" rx="9" ry="6" fill="#7CC4E4"/>
</svg>
